<?xml version="1.0" standalone="no"?>
<!DOCTYPE svg PUBLIC "-//W3C//DTD SVG 20010904//EN"
 "http://www.w3.org/TR/2001/REC-SVG-20010904/DTD/svg10.dtd">
<svg version="1.0" xmlns="http://www.w3.org/2000/svg"
 width="512.000000pt" height="512.000000pt" viewBox="0 0 512.000000 512.000000"
 preserveAspectRatio="xMidYMid meet">

<g transform="translate(0.000000,512.000000) scale(0.100000,-0.100000)"
fill="#000000" stroke="none">
<path d="M1973 4050 c-35 -17 -79 -50 -99 -73 -45 -52 -91 -146 -100 -205 -5
-31 -21 -64 -55 -108 -164 -217 -89 -521 159 -645 64 -32 72 -34 177 -34 101
0 115 2 166 28 187 95 281 319 219 520 -42 136 -148 233 -307 283 -15 4 -17
56 -3 103 5 18 28 58 51 88 22 30 38 57 35 60 -3 3 -45 8 -93 10 -83 5 -91 3
-150 -27z m40 -166 l-5 -60 -52 -11 c-28 -6 -53 -9 -55 -7 -8 7 50 93 80 118
17 15 33 26 34 24 1 -2 0 -30 -2 -64z m159 -204 c60 -28 119 -87 149 -148 31
-64 32 -186 1 -254 -26 -59 -94 -133 -147 -161 -62 -33 -183 -31 -250 5 -62
32 -130 104 -158 166 -25 57 -29 170 -8 222 37 91 107 158 196 187 57 18 160
11 217 -17z"/>
<path d="M2928 4073 c-16 -2 -28 -7 -28 -10 0 -3 20 -32 44 -64 43 -57 64
-119 54 -164 -2 -10 -25 -24 -58 -36 -125 -44 -222 -144 -260 -267 -62 -200
32 -424 218 -518 53 -27 66 -29 167 -29 100 0 115 2 167 28 256 125 335 432
169 651 -34 44 -50 77 -55 108 -9 59 -55 153 -100 205 -20 23 -64 55 -98 72
-51 26 -72 31 -127 30 -36 -1 -78 -4 -93 -6z m236 -174 c28 -33 60 -89 54 -94
-2 -1 -27 2 -55 8 -51 10 -53 12 -53 43 0 17 -3 46 -6 64 -7 30 -6 32 13 21
12 -6 33 -25 47 -42z m42 -219 c59 -29 115 -86 145 -148 34 -70 32 -178 -4
-253 -30 -63 -92 -125 -159 -161 -61 -32 -184 -33 -245 0 -57 30 -108 84 -140
151 -22 45 -28 69 -28 131 0 43 6 90 14 110 37 91 107 158 196 187 58 19 163
11 221 -17z"/>
<path d="M1046 3469 c-108 -43 -176 -118 -217 -239 -25 -75 -30 -195 -10 -252
10 -31 9 -50 -5 -118 -15 -69 -16 -89 -5 -147 35 -189 178 -331 369 -364 162
-29 329 59 406 211 86 173 62 361 -63 493 -89 94 -218 145 -337 133 l-62 -6
-15 38 c-33 83 -31 153 9 257 8 19 -8 18 -70 -6z m-49 -267 c11 -37 17 -68 13
-70 -5 -2 -29 -19 -54 -38 -25 -19 -46 -31 -46 -26 0 47 45 202 59 202 3 0 16
-31 28 -68z m359 -160 c56 -29 129 -112 148 -169 51 -150 -15 -323 -149 -389
-49 -24 -64 -26 -133 -22 -124 8 -215 68 -272 180 -25 51 -30 73 -30 132 0
121 56 212 163 266 58 30 68 31 147 28 61 -3 97 -10 126 -26z"/>
<path d="M4004 3475 c40 -104 42 -174 9 -257 l-15 -38 -62 6 c-119 12 -248
-39 -337 -133 -122 -129 -148 -313 -69 -482 76 -161 252 -254 420 -221 134 26
268 126 323 241 42 89 52 173 32 270 -11 58 -13 90 -6 112 30 100 19 204 -34
312 -50 103 -96 147 -195 184 -66 25 -74 26 -66 6z m169 -247 c18 -47 40 -149
33 -155 -8 -8 -105 62 -101 72 2 6 12 36 22 67 10 32 21 58 24 58 4 0 14 -19
22 -42z m-154 -178 c71 -33 118 -76 150 -142 26 -51 31 -73 31 -133 0 -170
-128 -303 -302 -313 -69 -4 -84 -2 -133 22 -182 90 -224 356 -78 498 74 71
111 86 218 87 49 0 83 -5 114 -19z"/>
<path d="M2439 2919 c-428 -45 -760 -334 -909 -789 -52 -159 -65 -247 -64
-440 0 -147 4 -188 22 -253 48 -177 132 -286 269 -354 63 -31 87 -37 157 -41
123 -6 232 32 424 150 101 62 166 88 221 88 58 0 97 -15 216 -85 223 -130 306
-160 431 -153 70 4 94 10 157 41 137 68 221 177 269 354 29 106 32 383 5 516
-55 271 -172 502 -342 673 -172 173 -371 267 -627 294 -104 11 -121 11 -229
-1z m376 -138 c352 -96 616 -407 706 -834 30 -137 32 -369 5 -472 -39 -147
-106 -239 -213 -291 -122 -60 -217 -41 -448 91 -175 99 -228 120 -310 118 -75
-1 -142 -26 -265 -99 -195 -115 -285 -149 -375 -142 -66 6 -151 46 -204 98
-179 174 -186 628 -16 988 143 301 366 490 655 553 118 26 350 21 465 -10z"/>
</g>
</svg>
