<?xml version="1.0" standalone="no"?>
<!DOCTYPE svg PUBLIC "-//W3C//DTD SVG 20010904//EN"
 "http://www.w3.org/TR/2001/REC-SVG-20010904/DTD/svg10.dtd">
<svg version="1.0" xmlns="http://www.w3.org/2000/svg"
 width="500.000000pt" height="500.000000pt" viewBox="0 0 500.000000 500.000000"
 preserveAspectRatio="xMidYMid meet">

<g transform="translate(0.000000,500.000000) scale(0.100000,-0.100000)"
fill="#000000" stroke="none">
<path d="M3160 4800 c-141 -26 -253 -108 -312 -228 -31 -62 -33 -74 -33 -167
0 -87 3 -106 25 -149 31 -61 97 -120 157 -140 54 -19 175 -21 224 -4 19 6 46
20 62 30 29 21 67 85 67 115 1 46 15 47 87 8 298 -161 382 -396 252 -706 -34
-82 -33 -81 -97 -43 -252 153 -545 231 -769 204 -248 -30 -476 -137 -693 -325
-226 -197 -445 -494 -576 -784 -26 -57 -49 -95 -56 -93 -7 2 -85 37 -173 79
-229 108 -249 115 -282 102 -15 -6 -36 -18 -47 -27 -48 -44 -91 -179 -116
-366 -10 -74 -22 -107 -70 -206 -147 -297 -167 -540 -65 -767 26 -60 27 -62
12 -115 -49 -171 -55 -275 -19 -318 42 -49 157 -40 294 23 l76 35 99 -49 c102
-52 234 -98 341 -120 34 -7 62 -17 62 -21 0 -4 -16 -29 -36 -54 -107 -142
-107 -227 3 -280 47 -23 70 -28 171 -32 228 -9 490 37 703 122 231 93 365 184
698 476 303 264 438 356 613 414 108 36 174 35 223 -4 21 -16 47 -30 58 -30
78 0 186 155 217 310 17 88 15 294 -5 412 -47 290 -215 772 -354 1017 -22 40
-41 75 -41 77 0 2 22 35 49 73 97 135 170 291 212 453 29 112 30 271 0 383
-67 257 -261 487 -514 610 -149 72 -332 107 -447 85z m255 -69 c99 -28 188
-69 179 -83 -4 -7 -3 -8 4 -4 20 12 171 -85 165 -105 -2 -5 3 -6 11 -3 15 6
145 -122 167 -164 8 -15 26 -45 41 -66 16 -21 28 -45 28 -53 0 -7 4 -13 9 -13
12 0 58 -145 71 -226 13 -79 8 -148 -22 -289 -32 -155 -108 -316 -212 -449
-25 -33 -46 -63 -46 -68 0 -5 28 -63 61 -131 158 -314 263 -591 315 -830 50
-230 43 -501 -17 -662 -24 -66 -72 -132 -104 -147 -21 -10 -29 -8 -48 10 -31
29 -70 42 -129 42 -191 0 -433 -144 -835 -496 -306 -269 -470 -377 -684 -452
-182 -64 -417 -99 -591 -88 -219 14 -264 51 -203 172 14 27 43 70 66 97 l41
47 65 0 c104 0 218 36 295 93 15 12 28 27 28 34 0 27 -31 24 -79 -6 -142 -92
-331 -99 -561 -22 -290 97 -542 275 -632 447 -55 104 -71 184 -66 329 6 158
33 253 121 425 65 128 69 140 77 230 13 140 28 208 61 277 50 105 73 102 363
-41 117 -58 216 -106 220 -106 4 0 49 -20 99 -44 219 -105 303 -144 325 -151
l24 -7 -21 -22 c-27 -28 -27 -56 -2 -56 11 0 23 5 27 11 3 6 34 24 68 40 163
77 291 4 398 -227 35 -78 46 -94 65 -94 34 0 29 22 -29 140 -63 127 -144 215
-223 243 -57 19 -140 22 -195 6 -31 -10 -43 -8 -86 12 -27 12 -141 64 -254
115 -113 51 -206 99 -208 106 -7 37 177 355 320 553 59 82 298 325 378 385 85
63 273 158 380 193 130 42 240 53 369 39 185 -21 358 -81 547 -192 58 -33 109
-58 115 -55 18 12 77 140 104 229 31 102 35 192 12 281 -29 111 -53 154 -135
233 -87 84 -150 127 -235 162 -33 12 -61 30 -64 39 -25 81 -77 151 -113 151
-34 0 -33 -21 3 -58 95 -98 87 -240 -16 -294 -59 -31 -174 -31 -235 1 -90 46
-131 122 -131 246 -1 88 16 139 68 204 37 46 120 96 191 115 80 21 211 20 295
-3z m-2595 -3531 c0 -15 137 -146 185 -177 25 -15 45 -31 45 -34 0 -16 -182
-79 -226 -79 -35 0 -64 37 -64 83 0 51 39 217 51 217 5 0 9 -4 9 -10z"/>
<path d="M3700 4560 c-9 -6 -10 -10 -3 -10 6 0 15 5 18 10 8 12 4 12 -15 0z"/>
<path d="M853 1776 c-24 -21 -26 -25 -11 -31 9 -4 28 1 41 10 23 15 28 15 56
0 17 -8 41 -31 54 -50 12 -19 28 -35 35 -35 25 0 10 41 -31 85 -52 54 -98 61
-144 21z"/>
<path d="M1529 1521 c-18 -15 -21 -22 -13 -31 9 -9 18 -8 39 6 25 17 29 17 58
1 18 -10 43 -33 56 -52 25 -37 35 -42 46 -24 10 15 -44 88 -76 105 -39 20 -82
18 -110 -5z"/>
<path d="M1074 1436 c-4 -10 -2 -27 4 -37 16 -26 16 -27 -19 -60 -36 -33 -32
-53 8 -38 22 8 28 7 37 -8 15 -28 68 -74 80 -70 21 7 17 33 -8 46 -25 14 -43
42 -48 75 -2 14 4 22 22 26 38 9 32 36 -7 32 -18 -1 -33 2 -33 6 0 5 -6 17
-14 28 -14 18 -15 18 -22 0z"/>
<path d="M4370 4422 c0 -5 19 -29 41 -53 70 -74 94 -149 69 -215 -7 -18 -7
-31 -1 -37 14 -14 41 51 41 95 0 44 -40 127 -85 177 -34 38 -65 53 -65 33z"/>
<path d="M4240 4372 c0 -5 20 -31 45 -58 69 -74 88 -144 64 -233 -2 -7 1 -15
8 -18 17 -6 36 63 31 111 -7 56 -31 106 -80 161 -36 41 -68 58 -68 37z"/>
<path d="M84 1800 c-36 -54 -43 -117 -16 -150 24 -30 40 -20 24 15 -18 38 -14
65 13 114 14 23 25 47 25 52 0 21 -21 6 -46 -31z"/>
<path d="M181 1794 c-43 -55 -50 -124 -17 -169 21 -29 30 -12 15 28 -14 40 -8
71 25 119 22 34 24 48 5 48 -4 0 -17 -12 -28 -26z"/>
</g>
</svg>
